<svg height="512" viewBox="0 0 64 64" width="512" xmlns="http://www.w3.org/2000/svg"><g id="contract"><path d="m6 24h22v2h-22z"/><path d="m6 48h18v2h-18z"/><path d="m6 54h18v2h-18z"/><path d="m6 30h22v2h-22z"/><path d="m6 36h22v2h-22z"/><path d="m6 42h18v2h-18z"/><path d="m61.2 8.5-.87-.5a3 3 0 0 0 -1.1-4.1l-3.464-2a3 3 0 0 0 -4.096 1.1l-7 12.125a1 1 0 0 0 .366 1.366l.866.5-1.902 3.296v-15.287a3 3 0 0 0 -3-3h-36a3 3 0 0 0 -3 3v54a3 3 0 0 0 3 3h36a3 3 0 0 0 3-3v-22.713l6.33-10.964a1 1 0 0 0 -.366-1.366l-.866-.5 2-3.464.866.5a1 1 0 0 0 .759.1 1 1 0 0 0 .607-.466l6-10.392.866.5a1 1 0 0 1 .366 1.366l-9 15.588 1.732 1 9-15.588a3 3 0 0 0 -1.094-4.101zm-53.2-4.5h8v12.919l-3.375-2.7a1 1 0 0 0 -1.25 0l-3.375 2.7zm34 55a1 1 0 0 1 -1 1h-36a1 1 0 0 1 -1-1v-54a1 1 0 0 1 1-1h1v15a1 1 0 0 0 1.625.781l4.375-3.5 4.375 3.5a1 1 0 0 0 1.625-.781v-15h23a1 1 0 0 1 1 1v14.994a.989.989 0 0 0 -.33.329l-13 22.517a.973.973 0 0 0 -.12.358v.018l-1.54 10.641a1 1 0 0 0 1.608.929l8.454-6.652.008-.007a1 1 0 0 0 .249-.284l4.671-8.092zm-11.685-14.055 4.37 2.523-5.339 4.2zm5.785 1.029-5.2-3 12-20.785 5.2 3zm11.266-23.517-1.732-1 2-3.464 1.732 1zm4.732-4.2-5.2-3 6.502-11.257a1 1 0 0 1 1.366-.365l3.464 2a1 1 0 0 1 .37 1.365z"/><path d="m38 6h2v2h-2z"/><path d="m28 6h8v2h-8z"/><path d="m32 10h8v2h-8z"/><path d="m20 6h6v2h-6z"/><path d="m20 10h10v2h-10z"/></g></svg>