<svg height="512" viewBox="0 0 64 64" width="512" xmlns="http://www.w3.org/2000/svg"><g id="contract"><rect fill="#ffdaaa" height="58" rx="2" width="40" x="3" y="3"/><path d="m43 5v54a2.006 2.006 0 0 1 -2 2h-2a2.006 2.006 0 0 0 2-2v-54a2.006 2.006 0 0 0 -2-2h2a2.006 2.006 0 0 1 2 2z" fill="#ffc477"/><path d="m17 11v8l-5-4-5 4v-16h10z" fill="#ff7956"/><path d="m17 3v16l-2-1.6v-14.4z" fill="#ff6243"/><path d="m58.73 4.77a1.988 1.988 0 0 1 .73 2.73l-.5.87-6.5 11.26-1.73-1-3.46-2-1.73-1 7-12.13a2 2 0 0 1 2.73-.73z" fill="#57a4ff"/><path d="m44.503 18.227h5.995v3.996h-5.995z" fill="#00d7df" transform="matrix(.5 -.866 .866 .5 6.219 51.228)"/><path d="m49.46 24.82-6.46 11.19-6.54 11.33-6.92-4 13-22.52.46.27 1.27.73 3.46 2z" fill="#57a4ff"/><path d="m59.46 7.5-.5.87-6.5 11.26-1.73-1-1.27-.73 5.5-9.53.5-.87a1.988 1.988 0 0 0 -.73-2.73l-2.19-1.27a2 2 0 0 1 2.73-.73l3.46 2a1.988 1.988 0 0 1 .73 2.73z" fill="#2488ff"/><path d="m49.46 24.82-6.46 11.19-6.54 11.33-3-1.73 5.54-9.6 6.46-11.19-1.73-1-2.19-1.27 1-1.73.46.27 1.27.73 3.46 2z" fill="#2488ff"/><path d="m36.46 47.34-8.46 6.66 1.54-10.66z" fill="#00d7df"/><path d="m6 24h22v2h-22z"/><path d="m6 48h18v2h-18z"/><path d="m6 54h18v2h-18z"/><path d="m6 30h22v2h-22z"/><path d="m6 36h22v2h-22z"/><path d="m6 42h18v2h-18z"/><path d="m61.2 8.5-.87-.5a3 3 0 0 0 -1.1-4.1l-3.464-2a3 3 0 0 0 -4.096 1.1l-7 12.125a1 1 0 0 0 .366 1.366l.866.5-1.902 3.296v-15.287a3 3 0 0 0 -3-3h-36a3 3 0 0 0 -3 3v54a3 3 0 0 0 3 3h36a3 3 0 0 0 3-3v-22.713l6.33-10.964a1 1 0 0 0 -.366-1.366l-.866-.5 2-3.464.866.5a1 1 0 0 0 .759.1 1 1 0 0 0 .607-.466l6-10.392.866.5a1 1 0 0 1 .366 1.366l-9 15.588 1.732 1 9-15.588a3 3 0 0 0 -1.094-4.101zm-53.2-4.5h8v12.919l-3.375-2.7a1 1 0 0 0 -1.25 0l-3.375 2.7zm34 55a1 1 0 0 1 -1 1h-36a1 1 0 0 1 -1-1v-54a1 1 0 0 1 1-1h1v15a1 1 0 0 0 1.625.781l4.375-3.5 4.375 3.5a1 1 0 0 0 1.625-.781v-15h23a1 1 0 0 1 1 1v14.994a.989.989 0 0 0 -.33.329l-13 22.517a.973.973 0 0 0 -.12.358v.018l-1.54 10.641a1 1 0 0 0 1.608.929l8.454-6.652.008-.007a1 1 0 0 0 .249-.284l4.671-8.092zm-11.685-14.055 4.37 2.523-5.339 4.2zm5.785 1.029-5.2-3 12-20.785 5.2 3zm11.266-23.517-1.732-1 2-3.464 1.732 1zm4.732-4.2-5.2-3 6.502-11.257a1 1 0 0 1 1.366-.365l3.464 2a1 1 0 0 1 .37 1.365z"/><path d="m38 6h2v2h-2z"/><path d="m28 6h8v2h-8z"/><path d="m32 10h8v2h-8z"/><path d="m20 6h6v2h-6z"/><path d="m20 10h10v2h-10z"/></g></svg>